<svg xmlns="http://www.w3.org/2000/svg" width="438.738" height="491.524" viewBox="0 0 438.738 491.524"><g transform="translate(141.523 231.185)"><path d="M517.452,187.225C490.271,80.343,396.352,3.189,286.111.094,227.83-1.542,166.5,17.788,121.851,85.427,42.032,206.341,126.756,289.9,185.823,329.6a369.6,369.6,0,0,1,76.4,68.664c39.9,47.345,116.652,106.179,208.064,14C536.537,345.445,535.558,258.419,517.452,187.225Z" transform="translate(-230.806 -231.185)" fill="#f5f5f5"/><path d="M591.795,228.583" transform="translate(-334.038 -129.023)" fill="#2f2e41"/><path d="M24.96,254.968a6.1,6.1,0,0,1-5.314-9.147c7.753-13.067,31.316-43.6,82.8-43.6,22.3,0,41.856,5.924,58.1,17.6a98.574,98.574,0,0,1,24.434,25.654,6.053,6.053,0,0,1-1.562,8.416l-.049.034a6.2,6.2,0,0,1-8.537-1.612c-6.49-9.408-26.177-37.98-72.389-37.98-45.123,0-65.507,26.307-72.171,37.588a6.013,6.013,0,0,1-5.314,3.049Z" transform="translate(-10.63 -114.144)" fill="#182ce2"/><path d="M137.253,403.891a6.072,6.072,0,0,1-1.524-.174C98.4,394.353,84.464,356.634,83.9,355.066l-.087-.348c-.3-1.089-7.8-26.961,3.7-42.118,5.27-6.925,13.284-10.453,23.868-10.453,9.843,0,16.943,3.092,21.821,9.5,4.007,5.227,5.619,11.673,7.187,17.9,3.267,12.936,5.619,19.73,19.208,20.427,5.967.3,9.887-3.223,12.108-6.228,6.011-8.188,7.056-21.56,2.526-33.32-5.836-15.244-26.482-43.947-62.894-43.947a63.853,63.853,0,0,0-41.29,14.547,67.031,67.031,0,0,0-20.645,30.4c-6.707,21.255,2.091,54.662,2.178,54.967a6.041,6.041,0,0,1-4.291,7.388l-.064.017a6.186,6.186,0,0,1-7.535-4.312c-.392-1.524-9.8-37.153-2.047-61.718,8.45-26.612,34.5-53.442,73.7-53.442a77.17,77.17,0,0,1,49.522,17.988c11.063,9.147,20.122,21.429,24.826,33.712,6.011,15.68,4.4,33.276-4.094,44.775-5.662,7.666-13.72,11.673-22.649,11.237-23.258-1.176-27.44-17.6-30.489-29.574-3.136-12.283-5.14-18.206-17.117-18.206-6.577,0-11.194,1.829-14.068,5.619-3.92,5.183-4.225,13.284-3.789,19.164,0,.061.009.122.014.184a49.622,49.622,0,0,0,6.625,21.212c6.046,10.425,18.311,26.414,38.659,31.523a6.05,6.05,0,0,1,4.457,7.3l-.014.057a6.183,6.183,0,0,1-5.967,4.573Z" transform="translate(-19.524 -143.552)" fill="#182ce2"/><path d="M119.4,431.358a6.2,6.2,0,0,1-4.486-1.916c-14.939-15.854-23.389-33.581-26.569-55.751v-.131c-1.786-14.678.828-35.454,13.633-49.74,9.451-10.54,22.736-15.9,39.417-15.9,19.73,0,35.236,9.277,44.905,26.786a75.292,75.292,0,0,1,8.45,25.915,6.153,6.153,0,0,1-12.239,1.263,63.05,63.05,0,0,0-7.187-21.647c-7.491-13.371-18.9-20.166-33.973-20.166-13.023,0-23.215,3.964-30.227,11.8-10.1,11.281-12.065,28.659-10.671,40.158,2.788,19.6,10.235,35.193,23.389,49.13a6.024,6.024,0,0,1-.236,8.516l-.069.064A6.179,6.179,0,0,1,119.4,431.358Z" transform="translate(-49.584 -173.807)" fill="#182ce2"/><circle cx="7.84" cy="7.84" r="7.84" transform="translate(84.061 184.989)" fill="#182ce2"/></g></svg>