<svg xmlns="http://www.w3.org/2000/svg" xmlns:xlink="http://www.w3.org/1999/xlink" width="120" height="36" viewBox="0 0 120 36"><defs><linearGradient id="a" x1="0.787" y1="0.163" x2="0.193" y2="0.859" gradientUnits="objectBoundingBox"><stop offset="0" stop-color="#335aff"/><stop offset="1" stop-color="#182ce2"/></linearGradient><linearGradient id="b" x1="0.5" y1="1.008" x2="0.499" y2="0.018" gradientUnits="objectBoundingBox"><stop offset="0" stop-opacity="0"/><stop offset="1"/></linearGradient><clipPath id="c"><path d="M273.712,280.968c0,1-.552,1.553-1.368,1.536l1.519,6.725-5.384-3.109,1.578-4.8a5.274,5.274,0,0,1-1.664-3.428c0-1.469,1.19-1.972,2.659-1.124A5.515,5.515,0,0,1,273.712,280.968Z" transform="translate(-268.393 -276.361)" fill="none"/></clipPath></defs><g transform="translate(-16 -14)"><g transform="translate(-73.361 -75.787)"><circle cx="18" cy="18" r="18" transform="translate(89.361 89.787)" fill="url(#a)"/><path d="M305.287,165.383l-8.308-4.8a5.843,5.843,0,0,1-2.817-4.444V139.9l11.125,6.423Z" transform="translate(-190.673 -46.778)" fill="#fff" opacity="0.41"/><path d="M320.6,271.282l4.427,16.4-9.663-5.543Z" transform="translate(-210.415 -169.093)" opacity="0.36" fill="url(#b)"/><path d="M241.112,203.888l-8.308-4.8a5.843,5.843,0,0,1-2.817-4.444V178.409l11.125,6.423Z" transform="translate(-130.925 -82.627)" fill="#fff"/><g transform="translate(101.711 102.539)"><g transform="translate(0.207 0.069)"><path d="M276.712,281.968c0,1-.552,1.553-1.368,1.536l1.519,6.725-5.384-3.109,1.578-4.8a5.274,5.274,0,0,1-1.664-3.428c0-1.469,1.19-1.972,2.659-1.124A5.515,5.515,0,0,1,276.712,281.968Z" transform="translate(-271.393 -277.361)" fill="gray"/></g><g clip-path="url(#c)"><path d="M273.712,280.968c0,1-.552,1.553-1.368,1.536l1.519,6.725-5.384-3.109,1.578-4.8a5.274,5.274,0,0,1-1.664-3.428c0-1.469,1.19-1.972,2.659-1.124A5.515,5.515,0,0,1,273.712,280.968Z" transform="translate(-268.393 -276.361)" fill="gray"/><g transform="translate(0.501 -0.057)"><path d="M280.972,280.142c0,1-.552,1.553-1.368,1.536l1.519,6.725-5.385-3.109,1.578-4.8a5.274,5.274,0,0,1-1.664-3.428c0-1.469,1.19-1.972,2.659-1.124A5.515,5.515,0,0,1,280.972,280.142Z" transform="translate(-275.653 -275.535)" fill="#999"/></g></g></g></g><text transform="translate(61 38)" fill="#3e3f44" font-size="23" font-family="Raleway-BlackItalic, Raleway" font-weight="800" font-style="italic"><tspan x="0" y="0">nCrypt</tspan></text></g></svg>