<svg xmlns="http://www.w3.org/2000/svg" xmlns:xlink="http://www.w3.org/1999/xlink" width="104" height="37" viewBox="0 0 104 37"><defs><clipPath id="a"><rect width="104" height="37" fill="none"/></clipPath><clipPath id="b"><circle cx="5.5" cy="5.5" r="5.5" transform="translate(0 0.462)" fill="#bcbcbc" opacity="0"/></clipPath><clipPath id="c"><circle cx="5.5" cy="5.5" r="5.5" transform="translate(0 0.372)" fill="#bcbcbc" opacity="0"/></clipPath><linearGradient id="d" x1="0.5" x2="0.5" y2="1" gradientUnits="objectBoundingBox"><stop offset="0" stop-color="#eee"/><stop offset="0.515" stop-color="#f9f9f9"/><stop offset="1" stop-color="#eee"/></linearGradient><filter id="e" x="0" y="2" width="11" height="35" filterUnits="userSpaceOnUse"><feOffset dy="1" input="SourceAlpha"/><feGaussianBlur stdDeviation="1" result="f"/><feFlood flood-opacity="0.18"/><feComposite operator="in" in2="f"/><feComposite in="SourceGraphic"/></filter><filter id="j" x="31" y="2" width="11" height="35" filterUnits="userSpaceOnUse"><feOffset dy="1" input="SourceAlpha"/><feGaussianBlur stdDeviation="1" result="k"/><feFlood flood-opacity="0.18"/><feComposite operator="in" in2="k"/><feComposite in="SourceGraphic"/></filter><filter id="o" x="62" y="2" width="11" height="35" filterUnits="userSpaceOnUse"><feOffset dy="1" input="SourceAlpha"/><feGaussianBlur stdDeviation="1" result="p"/><feFlood flood-opacity="0.18"/><feComposite operator="in" in2="p"/><feComposite in="SourceGraphic"/></filter><filter id="t" x="93" y="2" width="11" height="35" filterUnits="userSpaceOnUse"><feOffset dy="1" input="SourceAlpha"/><feGaussianBlur stdDeviation="1" result="u"/><feFlood flood-opacity="0.18"/><feComposite operator="in" in2="u"/><feComposite in="SourceGraphic"/></filter></defs><g clip-path="url(#a)"><g transform="translate(-573 -349)"><g transform="translate(573 348.538)"><g transform="translate(0)" clip-path="url(#b)"><circle cx="5.5" cy="5.5" r="5.5" transform="translate(0 0.462)" fill="#9b9b9b"/><ellipse cx="5.5" cy="6" rx="5.5" ry="6" transform="translate(1 0.462)" fill="#bebebe"/></g></g><g transform="translate(573 374.628)"><g transform="translate(0)" clip-path="url(#c)"><circle cx="5.5" cy="5.5" r="5.5" transform="translate(0 0.372)" fill="#9b9b9b"/><ellipse cx="5.5" cy="6" rx="5.5" ry="6" transform="translate(1 0.372)" fill="#bebebe"/></g></g><g transform="matrix(1, 0, 0, 1, 573, 349)" filter="url(#e)"><rect width="5" height="29" rx="2.5" transform="translate(3 4)" fill="url(#d)"/></g></g><g transform="translate(-542 -349)"><g transform="translate(573 348.538)"><g transform="translate(0)" clip-path="url(#b)"><circle cx="5.5" cy="5.5" r="5.5" transform="translate(0 0.462)" fill="#9b9b9b"/><ellipse cx="5.5" cy="6" rx="5.5" ry="6" transform="translate(1 0.462)" fill="#bebebe"/></g></g><g transform="translate(573 374.628)"><g transform="translate(0)" clip-path="url(#c)"><circle cx="5.5" cy="5.5" r="5.5" transform="translate(0 0.372)" fill="#9b9b9b"/><ellipse cx="5.5" cy="6" rx="5.5" ry="6" transform="translate(1 0.372)" fill="#bebebe"/></g></g><g transform="matrix(1, 0, 0, 1, 542, 349)" filter="url(#j)"><rect width="5" height="29" rx="2.5" transform="translate(34 4)" fill="url(#d)"/></g></g><g transform="translate(-511 -349)"><g transform="translate(573 348.538)"><g transform="translate(0)" clip-path="url(#b)"><circle cx="5.5" cy="5.5" r="5.5" transform="translate(0 0.462)" fill="#9b9b9b"/><ellipse cx="5.5" cy="6" rx="5.5" ry="6" transform="translate(1 0.462)" fill="#bebebe"/></g></g><g transform="translate(573 374.628)"><g transform="translate(0)" clip-path="url(#c)"><circle cx="5.5" cy="5.5" r="5.5" transform="translate(0 0.372)" fill="#9b9b9b"/><ellipse cx="5.5" cy="6" rx="5.5" ry="6" transform="translate(1 0.372)" fill="#bebebe"/></g></g><g transform="matrix(1, 0, 0, 1, 511, 349)" filter="url(#o)"><rect width="5" height="29" rx="2.5" transform="translate(65 4)" fill="url(#d)"/></g></g><g transform="translate(-480 -349)"><g transform="translate(573 348.538)"><g transform="translate(0)" clip-path="url(#b)"><circle cx="5.5" cy="5.5" r="5.5" transform="translate(0 0.462)" fill="#9b9b9b"/><ellipse cx="5.5" cy="6" rx="5.5" ry="6" transform="translate(1 0.462)" fill="#bebebe"/></g></g><g transform="translate(573 374.628)"><g transform="translate(0)" clip-path="url(#c)"><circle cx="5.5" cy="5.5" r="5.5" transform="translate(0 0.372)" fill="#9b9b9b"/><ellipse cx="5.5" cy="6" rx="5.5" ry="6" transform="translate(1 0.372)" fill="#bebebe"/></g></g><g transform="matrix(1, 0, 0, 1, 480, 349)" filter="url(#t)"><rect width="5" height="29" rx="2.5" transform="translate(96 4)" fill="url(#d)"/></g></g></g></svg>